<svg width="28" height="30" viewBox="0 0 28 30" fill="none" xmlns="http://www.w3.org/2000/svg">
<g clip-path="url(#clip0_846_675)" filter="url(#filter0_d_846_675)">
<path d="M13.99 2C8.47 2 4 6.48 4 12C4 17.52 8.47 22 13.99 22C19.52 22 24 17.52 24 12C24 6.48 19.52 2 13.99 2ZM20.92 8H17.97C17.65 6.75 17.19 5.55 16.59 4.44C18.43 5.07 19.96 6.35 20.92 8ZM14 4.04C14.83 5.24 15.48 6.57 15.91 8H12.09C12.52 6.57 13.17 5.24 14 4.04ZM6.26 14C6.1 13.36 6 12.69 6 12C6 11.31 6.1 10.64 6.26 10H9.64C9.56 10.66 9.5 11.32 9.5 12C9.5 12.68 9.56 13.34 9.64 14H6.26ZM7.08 16H10.03C10.35 17.25 10.81 18.45 11.41 19.56C9.57 18.93 8.04 17.66 7.08 16ZM10.03 8H7.08C8.04 6.34 9.57 5.07 11.41 4.44C10.81 5.55 10.35 6.75 10.03 8ZM14 19.96C13.17 18.76 12.52 17.43 12.09 16H15.91C15.48 17.43 14.83 18.76 14 19.96ZM16.34 14H11.66C11.57 13.34 11.5 12.68 11.5 12C11.5 11.32 11.57 10.65 11.66 10H16.34C16.43 10.65 16.5 11.32 16.5 12C16.5 12.68 16.43 13.34 16.34 14ZM16.59 19.56C17.19 18.45 17.65 17.25 17.97 16H20.92C19.96 17.65 18.43 18.93 16.59 19.56ZM18.36 14C18.44 13.34 18.5 12.68 18.5 12C18.5 11.32 18.44 10.66 18.36 10H21.74C21.9 10.64 22 11.31 22 12C22 12.69 21.9 13.36 21.74 14H18.36Z" fill="#111111"/>
</g>
<defs>
<filter id="filter0_d_846_675" x="-2" y="0" width="32" height="32" filterUnits="userSpaceOnUse" color-interpolation-filters="sRGB">
<feFlood flood-opacity="0" result="BackgroundImageFix"/>
<feColorMatrix in="SourceAlpha" type="matrix" values="0 0 0 0 0 0 0 0 0 0 0 0 0 0 0 0 0 0 127 0" result="hardAlpha"/>
<feOffset dy="4"/>
<feGaussianBlur stdDeviation="2"/>
<feComposite in2="hardAlpha" operator="out"/>
<feColorMatrix type="matrix" values="0 0 0 0 0 0 0 0 0 0 0 0 0 0 0 0 0 0 0.25 0"/>
<feBlend mode="normal" in2="BackgroundImageFix" result="effect1_dropShadow_846_675"/>
<feBlend mode="normal" in="SourceGraphic" in2="effect1_dropShadow_846_675" result="shape"/>
</filter>
<clipPath id="clip0_846_675">
<rect width="24" height="24" fill="white" transform="translate(2)"/>
</clipPath>
</defs>
</svg>
