<svg width="102" height="102" viewBox="0 0 102 102" fill="none" xmlns="http://www.w3.org/2000/svg">
<path d="M77.5243 12.0275C77.0445 11.8119 76.7059 11.7216 76.5086 11.7566C76.305 11.7933 76.0679 12.0435 75.7973 12.5074L72.6097 17.972C72.3554 18.4078 72.2558 18.7303 72.3107 18.9392C72.3634 19.1521 72.6083 19.4076 73.0456 19.7055L72.9126 19.9334L69.4395 17.9075L69.5725 17.6795C70.0384 17.9191 70.3854 18.0224 70.6137 17.9895C70.838 17.9541 71.0691 17.7325 71.307 17.3246L74.7501 11.4222C74.8294 11.2863 74.8704 11.1654 74.873 11.0598C74.8694 10.9558 74.7954 10.8484 74.6511 10.7374C74.5661 10.6717 74.4748 10.6078 74.3772 10.5455C74.2755 10.4808 74.0848 10.3668 73.8048 10.2035C72.7131 9.56672 71.9228 9.22631 71.434 9.18232C70.9451 9.13833 70.3049 9.38127 69.5135 9.91113L69.2016 9.72918L71.0436 7.94965L77.6538 11.8056L77.5243 12.0275Z" fill="#333333"/>
<path d="M67.0178 9.82432C66.7541 10.7071 66.2521 11.3688 65.5116 11.8096C64.7654 12.2534 63.9509 12.3435 63.0682 12.0798C62.1899 11.8174 61.5485 11.3118 61.1441 10.5629C60.7397 9.81394 60.6806 8.96041 60.9668 8.00226C61.2305 7.11952 61.7392 6.43559 62.4929 5.95048C63.2467 5.46536 64.0671 5.35532 64.9543 5.62034C65.806 5.87475 66.4334 6.40281 66.8365 7.20451C67.2396 8.00621 67.3001 8.87948 67.0178 9.82432ZM63.3737 11.7362C63.7242 11.8409 64.0625 11.8164 64.3887 11.6625C64.9528 11.3914 65.3827 10.7612 65.6782 9.77201C65.914 8.98243 65.9566 8.19307 65.8058 7.40393C65.6505 6.61347 65.2557 6.1235 64.6214 5.93401C64.1246 5.7856 63.6749 5.90009 63.2722 6.27748C62.8651 6.65355 62.551 7.21197 62.3297 7.95277C62.1004 8.72017 62.0552 9.49424 62.194 10.275C62.3329 11.0557 62.7261 11.5428 63.3737 11.7362Z" fill="#333333"/>
<path d="M58.1834 4.51439C57.7559 4.5098 57.4677 4.55604 57.3186 4.6531C57.1691 4.75477 57.0764 4.98991 57.0403 5.35852L56.7355 8.47556C56.6909 8.93171 56.7029 9.26082 56.7715 9.4629C56.8351 9.66914 56.9797 9.7833 57.2055 9.80538C57.2516 9.80988 57.3145 9.80905 57.3941 9.80289C57.4688 9.80088 57.5484 9.79472 57.6332 9.7844L57.6109 10.0125C57.3392 10.0789 57.0605 10.147 56.7745 10.2168C56.4886 10.2865 56.2906 10.3369 56.1806 10.368C55.9417 10.433 55.6947 10.5089 55.4397 10.5956C55.4074 10.5924 55.3901 10.5791 55.3878 10.5556C55.3808 10.5317 55.3809 10.4829 55.3881 10.4091L55.499 9.27566C55.164 9.6569 54.8493 9.94942 54.5549 10.1532C54.256 10.3566 53.959 10.4438 53.6641 10.415C53.4291 10.392 53.2449 10.3019 53.1114 10.1446C52.9775 9.99198 52.9209 9.80968 52.9416 9.59773C52.9601 9.40882 53.0333 9.25549 53.1611 9.13774C53.2843 9.01954 53.4311 8.96878 53.6016 8.98545C53.7767 9.00257 53.9462 9.10055 54.1101 9.27939C54.2694 9.45778 54.3998 9.55193 54.5011 9.56184C54.6624 9.57761 54.8734 9.46567 55.134 9.22602C55.3943 8.99097 55.5379 8.73522 55.5649 8.45877L55.8697 5.34173C55.9085 4.94548 55.8434 4.66001 55.6744 4.48533C55.505 4.31526 55.2055 4.21388 54.7761 4.18119L54.7984 3.95311L58.2057 4.28632L58.1834 4.51439Z" fill="#333333"/>
<path d="M47.6518 10.5116C47.0016 10.5695 46.412 10.3944 45.8829 9.98601C45.3543 9.58228 45.0531 8.9677 44.9796 8.14228L49.3718 7.75081C49.2304 6.6851 48.9188 5.92737 48.4372 5.47762C47.9555 5.02787 47.415 4.8297 46.8155 4.88313C46.3313 4.92629 45.9345 5.08947 45.6251 5.37268C45.3157 5.6559 45.0411 6.04291 44.8013 6.53372L44.5518 6.47229C44.6887 5.86981 44.9955 5.29634 45.4722 4.75187C45.9443 4.20782 46.5561 3.9023 47.3078 3.83531C48.1747 3.75804 48.8748 4.02564 49.4081 4.63811C49.9368 5.251 50.2392 5.98398 50.3152 6.83707C50.3979 7.76394 50.1948 8.58845 49.7061 9.31061C49.2173 10.0328 48.5326 10.4331 47.6518 10.5116ZM48.008 9.9709C48.5337 9.92405 48.9141 9.65542 49.1493 9.16502C49.2746 8.90286 49.3528 8.57984 49.3836 8.19596L46.4647 8.45612C46.5565 8.91273 46.6747 9.24846 46.8194 9.46332C47.0815 9.84897 47.4777 10.0182 48.008 9.9709Z" fill="#333333"/>
<path d="M40.325 4.98865C39.9963 5.14159 39.7902 5.27984 39.7068 5.40341C39.5781 5.59251 39.5821 5.87651 39.7187 6.25542L40.9361 9.63293C41.0523 9.95522 41.172 10.1507 41.2952 10.2195C41.414 10.2899 41.5715 10.2897 41.7675 10.2191C41.8589 10.1861 41.927 10.1566 41.9718 10.1306C42.0122 10.1062 42.059 10.0722 42.1121 10.0284L42.1945 10.2571L41.7807 10.5834C41.6312 10.7012 41.3894 10.9041 41.0551 11.1919C40.7209 11.4797 40.5429 11.6275 40.5211 11.6353C40.4993 11.6432 40.4823 11.637 40.4701 11.6168C40.4579 11.5966 40.4408 11.556 40.4189 11.495L40.101 10.6131C39.8111 11.1605 39.536 11.5647 39.2758 11.8258C39.0172 12.0913 38.7224 12.2837 38.3914 12.403C37.9428 12.5647 37.5307 12.541 37.1552 12.3319C36.9561 12.2166 36.7599 12.0339 36.5664 11.7838C36.3618 12.2266 36.168 12.5696 35.985 12.8127C35.6686 13.2319 35.2948 13.5192 34.8636 13.6746C34.1624 13.9274 33.5914 13.8109 33.1506 13.3251C32.8994 13.0515 32.6482 12.5663 32.397 11.8694L31.4197 9.15826C31.3083 8.84904 31.1646 8.66214 30.9888 8.59757C30.8102 8.53893 30.536 8.55655 30.1663 8.65044L30.1051 8.48058L33.0515 7.41855L33.1174 7.60147C32.751 7.77289 32.5303 7.93859 32.4551 8.09857C32.3755 8.26012 32.4009 8.52164 32.5312 8.88313L33.5461 11.6988C33.6984 12.1213 33.8564 12.4162 34.02 12.5836C34.3099 12.8826 34.69 12.9474 35.1604 12.7778C35.4435 12.6758 35.6907 12.4809 35.9019 12.1931C36.0238 12.0261 36.1592 11.7805 36.308 11.4562L35.1023 8.11135C34.9752 7.75857 34.8176 7.5127 34.6298 7.37373C34.4375 7.23634 34.1387 7.23333 33.7333 7.36469L33.6721 7.19484L36.6707 6.11396L36.7319 6.28382C36.337 6.48522 36.1096 6.68037 36.0498 6.86927C35.9899 7.05816 36.0644 7.44223 36.2732 8.02149L36.9325 9.8507C37.1743 10.5214 37.3842 10.9674 37.5624 11.1886C37.86 11.5636 38.2418 11.6671 38.7078 11.4991C38.9735 11.4034 39.2081 11.2351 39.4117 10.9944C39.6168 10.7581 39.775 10.487 39.8862 10.1812L38.5981 6.60766C38.4788 6.27666 38.3398 6.06841 38.181 5.98293C38.0179 5.89901 37.7417 5.92474 37.3525 6.0601L37.2913 5.89025L40.2638 4.81879L40.325 4.98865Z" fill="#333333"/>
<path d="M26.6054 21.7319C26.7365 21.8817 26.797 22.0564 26.787 22.2558C26.777 22.4553 26.6953 22.6221 26.542 22.7562C26.3921 22.8873 26.2177 22.9445 26.0187 22.9279C25.8192 22.9179 25.6524 22.8362 25.5183 22.6829C25.3872 22.5331 25.3284 22.3569 25.342 22.1544C25.3551 21.9584 25.4365 21.7949 25.5864 21.6638C25.7397 21.5297 25.9143 21.4692 26.1103 21.4823C26.3093 21.4988 26.4744 21.582 26.6054 21.7319ZM21.4997 14.5453C21.1573 14.9063 20.977 15.1748 20.9587 15.3507C20.9434 15.5302 21.1141 15.8237 21.4707 16.2314L23.6517 18.7245C23.8498 18.951 24.0027 19.0941 24.1103 19.1538C24.2875 19.2509 24.4597 19.2263 24.627 19.08C24.6653 19.0465 24.7006 19.0095 24.7328 18.969C24.7616 18.9315 24.8417 18.8122 24.9733 18.611L25.115 18.773L24.9543 19.0428C24.5183 19.7749 24.2242 20.2966 24.0722 20.608C24.0112 20.7351 23.9668 20.8109 23.9389 20.8353C23.9106 20.817 23.8843 20.7939 23.8599 20.766L20.577 17.0133C20.2295 16.616 19.9645 16.408 19.782 16.3893C19.596 16.3736 19.3219 16.4996 18.9595 16.7674L18.8315 16.6211L21.3716 14.399L21.4997 14.5453Z" fill="#333333"/>
<path d="M15.7366 21.7736C15.4147 21.6739 15.1189 21.6682 14.8493 21.7567C14.5804 21.8517 14.3459 22.0266 14.1458 22.2815C13.837 22.6747 13.7687 23.1627 13.941 23.7453C14.1141 24.3345 14.5502 24.9036 15.2492 25.4526C15.9192 25.9787 16.5342 26.2262 17.0943 26.1951C17.6515 26.1677 18.0802 25.9628 18.3805 25.5805C18.5921 25.311 18.7013 24.9995 18.7082 24.6459C18.7188 24.2951 18.644 24.0568 18.4838 23.931L15.7366 21.7736ZM13.8399 17.4764C13.593 17.8358 13.4957 18.1096 13.548 18.2978C13.5975 18.4897 13.7551 18.69 14.0209 18.8988L19.264 23.0161C19.5407 23.2335 19.7445 23.3375 19.8753 23.3284C20.0068 23.3258 20.1455 23.2316 20.2914 23.0459C20.3228 23.0059 20.351 22.9662 20.376 22.9269C20.3981 22.8913 20.4294 22.8364 20.4699 22.7623L20.6502 22.9038L20.412 23.5557C20.4014 23.5767 20.2396 24.0413 19.9268 24.9494C19.9125 24.9676 19.8934 24.9732 19.8695 24.9662C19.8463 24.9656 19.8238 24.9568 19.802 24.9397L19.0647 24.3606C19.1163 24.7897 19.1288 25.141 19.1024 25.4145C19.0489 25.9023 18.8864 26.3192 18.6148 26.6651C18.2202 27.1675 17.6665 27.4303 16.9538 27.4534C16.2419 27.483 15.5145 27.2061 14.7718 26.6228C14.0436 26.0509 13.5543 25.3135 13.3039 24.4105C13.0506 23.5112 13.1828 22.732 13.7003 22.0729C13.8604 21.869 14.0246 21.7125 14.1928 21.6032C14.4523 21.4302 14.7611 21.3255 15.1194 21.289L13.3335 19.8865C12.9658 19.5977 12.6928 19.4805 12.5147 19.5349C12.3366 19.5893 12.0743 19.8071 11.7278 20.1884L11.5367 20.0383L13.6597 17.3348L13.8399 17.4764Z" fill="#333333"/>
<path d="M11.685 29.2161L11.5833 29.4214C11.0631 29.2825 10.6364 29.2312 10.3032 29.2676C9.69472 29.3278 9.25173 29.6379 8.97424 30.1979C8.82007 30.509 8.78384 30.7959 8.86553 31.0585C8.94931 31.3274 9.1281 31.5296 9.40188 31.6653C9.5761 31.7516 9.7698 31.783 9.98297 31.7595C10.1961 31.736 10.4442 31.6315 10.7272 31.4463L11.4707 30.9467C11.9974 30.5721 12.4592 30.3334 12.8564 30.2305C13.2535 30.1276 13.6409 30.1697 14.0184 30.3568C14.483 30.587 14.7824 30.942 14.9166 31.4219C15.0508 31.9017 14.9936 32.3926 14.7449 32.8946C14.6359 33.1144 14.4752 33.3345 14.2628 33.5547C14.0483 33.7791 13.9328 33.9078 13.9163 33.941C13.8793 34.0157 13.863 34.0748 13.8673 34.1182C13.8716 34.1617 13.8904 34.2072 13.9237 34.2547L13.8497 34.404L12.0921 33.5873L12.1876 33.3944C12.6311 33.5109 12.9998 33.554 13.2937 33.524C13.836 33.4724 14.2273 33.2039 14.4678 32.7185C14.6117 32.4282 14.6356 32.1558 14.5394 31.9015C14.4433 31.6472 14.2749 31.4604 14.0343 31.3412C13.6527 31.1521 13.1707 31.2698 12.5884 31.6942L11.7396 32.2967C10.8206 32.9418 10.0416 33.1061 9.40282 32.7895C8.91332 32.547 8.60449 32.164 8.47631 31.6407C8.34608 31.1215 8.42793 30.5653 8.72187 29.9721C8.8452 29.7232 9.02646 29.4617 9.26564 29.1875C9.50482 28.9133 9.6388 28.7472 9.66758 28.6892C9.69224 28.6394 9.69516 28.5866 9.67633 28.5307C9.66164 28.477 9.63455 28.4274 9.59504 28.382L9.67521 28.2202L11.685 29.2161Z" fill="#333333"/>
<path d="M11.8911 39.6816L7.58979 38.5631C7.28511 38.4839 7.02985 38.4629 6.82401 38.5003C6.44038 38.5775 6.19089 38.8379 6.07555 39.2815C5.99632 39.5862 6.01966 39.9104 6.14555 40.254C6.21446 40.4489 6.32535 40.6571 6.47822 40.8787L10.1612 41.8364C10.5063 41.9261 10.75 41.9177 10.8925 41.8113C11.035 41.7048 11.1698 41.4529 11.2971 41.0554L11.5189 41.1131L10.9544 43.2839L6.22293 42.0536C5.91825 41.9744 5.69368 41.9734 5.54922 42.0506C5.40808 42.1335 5.29821 42.3537 5.21961 42.7112L5.03143 42.6622C5.0283 42.3983 5.02396 42.2035 5.01841 42.0776C5.01734 41.953 5.00753 41.7424 4.98899 41.4457C4.97895 41.3188 4.94903 41.0383 4.89922 40.6044C4.90505 40.582 4.91974 40.5715 4.94331 40.5728C4.9624 40.573 4.98538 40.5766 5.01227 40.5836L6.09432 40.8649C5.81062 40.4659 5.61402 40.1182 5.50453 39.8218C5.33472 39.3711 5.30517 38.9329 5.41585 38.5072C5.51721 38.1174 5.75165 37.7861 6.11915 37.5134C6.48334 37.235 6.98804 37.1796 7.63324 37.3474L11.1214 38.2544C11.4798 38.3476 11.7393 38.3338 11.8999 38.2129C12.0017 38.1341 12.1102 37.9375 12.2255 37.6231L12.4137 37.672L11.8911 39.6816Z" fill="#333333"/>
<path d="M3.9317 46.355C3.9674 46.7158 4.02977 46.956 4.11882 47.0755C4.25476 47.2595 4.52411 47.3496 4.92686 47.346L8.51694 47.3133C8.85952 47.3102 9.08362 47.2618 9.18925 47.1683C9.29493 47.0794 9.34682 46.9307 9.34492 46.7224C9.34404 46.6252 9.33874 46.5512 9.32901 46.5003C9.31933 46.4541 9.30263 46.3987 9.27889 46.3341L9.52193 46.3319L9.69314 46.8304C9.75496 47.0104 9.86645 47.3056 10.0276 47.7162C10.1887 48.1268 10.2694 48.3437 10.2696 48.3668C10.2698 48.39 10.2584 48.404 10.2353 48.4088C10.2122 48.4136 10.1682 48.4164 10.1034 48.4169L9.16597 48.4255C9.58679 48.88 9.87741 49.2732 10.0378 49.6051C10.2029 49.9369 10.287 50.2788 10.2902 50.6306C10.2946 51.1074 10.136 51.4885 9.81451 51.7738C9.63995 51.9236 9.40265 52.0484 9.10262 52.1484C9.45295 52.4878 9.71259 52.7841 9.88157 53.0372C10.1726 53.4743 10.3202 53.9221 10.3244 54.3804C10.3311 55.1257 10.0324 55.6261 9.42827 55.8816C9.087 56.0283 8.54602 56.1049 7.80532 56.1117L4.92353 56.1379C4.59485 56.1409 4.37097 56.2147 4.25192 56.3593C4.13753 56.5085 4.06355 56.7731 4.02997 57.153L3.84942 57.1547L3.82092 54.0229L4.01535 54.0211C4.05605 54.4235 4.13947 54.6867 4.2656 54.8105C4.39177 54.939 4.64698 55.0015 5.03122 54.998L8.02411 54.9708C8.47316 54.9667 8.80372 54.9151 9.01578 54.8159C9.39384 54.6412 9.58059 54.3038 9.57604 53.8038C9.5733 53.5029 9.47105 53.2052 9.26929 52.9108C9.152 52.7405 8.9649 52.5316 8.70801 52.2839L5.15265 52.3163C4.77767 52.3197 4.49355 52.3871 4.3003 52.5185C4.10709 52.6545 4.00548 52.9355 3.99546 53.3616L3.81492 53.3632L3.78591 50.1759L3.96646 50.1742C4.02601 50.6135 4.13504 50.8926 4.29353 51.0116C4.45203 51.1305 4.83913 51.1871 5.45483 51.1815L7.39917 51.1639C8.1121 51.1574 8.60239 51.1066 8.87005 51.0116C9.32234 50.8547 9.54623 50.5286 9.54172 50.0332C9.53915 49.7508 9.45793 49.4738 9.29804 49.2021C9.14279 48.9303 8.93922 48.6914 8.68734 48.4854L4.88893 48.52C4.5371 48.5232 4.2946 48.5855 4.16145 48.7071C4.02833 48.8333 3.96134 49.1025 3.96046 49.5145L3.77991 49.5162L3.75116 46.3566L3.9317 46.355Z" fill="#333333"/>
<path d="M13.7428 67.6153C13.8787 67.9247 13.9357 68.2385 13.9137 68.5566C13.8991 68.7653 13.8479 68.9825 13.76 69.2082L15.7818 68.3199C16.0403 68.2063 16.2053 68.0984 16.2767 67.9962C16.35 67.8983 16.3391 67.7413 16.2441 67.5251C16.2218 67.4742 16.2001 67.4307 16.1791 67.3944C16.1581 67.3581 16.1124 67.277 16.042 67.1512L16.2518 67.0591L16.6143 67.5217C16.749 67.6901 16.8858 67.8576 17.0247 68.0241C17.1636 68.1906 17.2901 68.3347 17.4043 68.4565C17.4553 68.515 17.5449 68.6096 17.6732 68.7404L17.6772 68.7841L17.0041 69.0647C16.7606 69.1666 16.5087 69.2723 16.2483 69.3816C15.9921 69.4891 15.739 69.5978 15.4889 69.7077L10.289 71.9772C10.0135 72.0983 9.83559 72.2169 9.75519 72.3331C9.67478 72.4494 9.69883 72.6537 9.82733 72.9462C9.84781 72.9928 9.8683 73.0394 9.88878 73.086C9.91351 73.1308 9.94035 73.1746 9.96931 73.2175L9.75951 73.3097C9.73986 73.288 9.49888 73.0273 9.03657 72.5275L8.2229 71.6942L8.26056 71.6245L9.04256 71.2809C8.67973 71.1572 8.40503 71.0326 8.21848 70.9073C7.8918 70.6817 7.63907 70.3654 7.46029 69.9585C7.1437 69.238 7.16432 68.5311 7.52216 67.8378C7.8861 67.147 8.4347 66.6405 9.16796 66.3183C10.0877 65.9142 10.9934 65.8348 11.885 66.0802C12.7827 66.328 13.402 66.8397 13.7428 67.6153ZM8.40392 70.2417C8.54918 70.5723 8.76399 70.7965 9.04835 70.9143C9.33271 71.0321 9.56178 71.0528 9.73555 70.9764L12.463 69.7781C13.014 69.536 13.3367 69.2172 13.4309 68.8218C13.5313 68.4288 13.5201 68.0924 13.3972 67.8127C13.1625 67.2786 12.7426 66.9676 12.1376 66.8794C11.5367 66.7895 10.8909 66.8962 10.2 67.1998C9.51762 67.4996 8.9783 67.9237 8.58206 68.472C8.18768 69.0245 8.1283 69.6144 8.40392 70.2417Z" fill="#333333"/>
<path d="M13.6955 74.9164C14.4386 74.3718 15.2383 74.1472 16.0947 74.2428C16.9576 74.3393 17.6613 74.7591 18.206 75.5022C18.7478 76.2415 18.954 77.0318 18.8243 77.873C18.6947 78.7142 18.2266 79.4304 17.4201 80.0215C16.677 80.5661 15.8586 80.8044 14.9648 80.7362C14.0711 80.668 13.3506 80.2605 12.8032 79.5137C12.2777 78.7968 12.0963 77.9971 12.2588 77.1146C12.4213 76.2321 12.9002 75.4993 13.6955 74.9164ZM17.7549 75.5917C17.5387 75.2967 17.2542 75.1121 16.9013 75.0378C16.2878 74.9134 15.5647 75.1564 14.732 75.7667C14.0674 76.2539 13.557 76.8576 13.2009 77.5777C12.8476 78.3017 12.8666 78.9306 13.2579 79.4646C13.5645 79.8828 13.9921 80.063 14.5409 80.0051C15.0925 79.951 15.68 79.6954 16.3036 79.2384C16.9496 78.7649 17.4529 78.175 17.8134 77.4688C18.174 76.7625 18.1545 76.1368 17.7549 75.5917Z" fill="#333333"/>
<path d="M17.6811 84.6493C18.024 84.9129 18.2955 85.0496 18.4956 85.0593C18.6989 85.0656 18.9318 84.9284 19.1943 84.6478L23.8285 79.6924C24.0372 79.4693 24.1625 79.298 24.2043 79.1787C24.2695 78.9735 24.199 78.7744 23.9927 78.5815C23.9454 78.5372 23.8882 78.4933 23.8213 78.4497C23.7577 78.4092 23.6741 78.3596 23.5706 78.3008L23.7272 78.1334C24.2975 78.4386 24.9987 78.7902 25.8309 79.1881C25.8546 79.2103 25.8586 79.233 25.843 79.2565C25.8308 79.2831 25.7931 79.3302 25.7298 79.3979L20.0426 85.4791C19.7675 85.7733 19.6395 86.0118 19.6587 86.1946C19.6811 86.374 19.8402 86.6241 20.1359 86.9451L20.0031 87.0871L17.5482 84.7913L17.6811 84.6493Z" fill="#333333"/>
<path d="M24.8686 86.9865C25.3623 86.2087 26.0253 85.7083 26.8577 85.4854C27.6965 85.2611 28.5048 85.3958 29.2826 85.8895C30.0565 86.3807 30.5363 87.0417 30.7219 87.8723C30.9075 88.703 30.7324 89.5404 30.1965 90.3847C29.7028 91.1625 29.0274 91.6824 28.1702 91.9444C27.313 92.2064 26.4935 92.0893 25.7118 91.5931C24.9613 91.1168 24.5011 90.4381 24.331 89.557C24.161 88.6759 24.3402 87.8191 24.8686 86.9865ZM28.8952 86.1371C28.5864 85.9411 28.2541 85.8728 27.8984 85.9321C27.2818 86.0397 26.6968 86.5294 26.1436 87.401C25.702 88.0968 25.4465 88.8448 25.3772 89.6453C25.3117 90.4481 25.5584 91.027 26.1174 91.3817C26.5552 91.6596 27.0191 91.6717 27.5091 91.4179C28.0031 91.1667 28.4572 90.7147 28.8716 90.0619C29.3008 89.3857 29.5547 88.6531 29.6333 87.864C29.7119 87.0749 29.4658 86.4993 28.8952 86.1371Z" fill="#333333"/>
<path d="M31.9266 94.498C32.3368 94.6187 32.6268 94.6525 32.7966 94.5996C32.9681 94.5424 33.1213 94.3413 33.2562 93.9964L34.3967 91.0796C34.5636 90.6527 34.6415 90.3327 34.6304 90.1196C34.6253 89.9038 34.5171 89.7547 34.3059 89.6721C34.2627 89.6552 34.202 89.6389 34.1237 89.6232C34.0513 89.6048 33.9729 89.5891 33.8886 89.576L33.972 89.3626C34.2515 89.3724 34.5383 89.3827 34.8324 89.3933C35.1265 89.4039 35.3308 89.4092 35.4451 89.4092C35.6927 89.4115 35.951 89.4057 36.22 89.3916C36.2502 89.4034 36.2632 89.4209 36.2591 89.4441C36.2593 89.4691 36.2459 89.516 36.2189 89.585L35.8042 90.6457C36.2302 90.3698 36.6125 90.1739 36.9512 90.0578C37.2942 89.9433 37.6037 89.9401 37.8796 90.048C38.0995 90.134 38.2523 90.2708 38.338 90.4584C38.4254 90.6417 38.4303 90.8325 38.3528 91.0308C38.2836 91.2076 38.1716 91.3353 38.0166 91.4139C37.8659 91.4941 37.7108 91.5031 37.5512 91.4407C37.3874 91.3766 37.2509 91.2362 37.1418 91.0196C37.0369 90.8046 36.9371 90.6786 36.8422 90.6415C36.6913 90.5825 36.4579 90.6329 36.1419 90.7926C35.8276 90.9481 35.6198 91.1552 35.5187 91.4139L34.3781 94.3307C34.2331 94.7015 34.2182 94.9939 34.3333 95.208C34.4501 95.4177 34.7107 95.5966 35.1151 95.7448L35.0316 95.9583L31.8432 94.7115L31.9266 94.498Z" fill="#333333"/>
<path d="M46.7351 96.4512L46.964 96.463C47.0432 96.9955 47.1657 97.4074 47.3315 97.6987C47.6285 98.2332 48.0891 98.5165 48.7133 98.5486C49.06 98.5665 49.3377 98.4857 49.5462 98.3064C49.7597 98.1227 49.8742 97.8783 49.8899 97.5731C49.8999 97.3789 49.8518 97.1887 49.7455 97.0024C49.6391 96.8162 49.4448 96.63 49.1623 96.444L48.4084 95.9601C47.8554 95.6257 47.4528 95.2967 47.2006 94.9732C46.9484 94.6496 46.8331 94.2774 46.8547 93.8567C46.8814 93.3389 47.0882 92.923 47.4752 92.6092C47.8622 92.2953 48.3354 92.1528 48.8949 92.1816C49.1399 92.1942 49.4057 92.2542 49.6922 92.3617C49.9834 92.4694 50.1474 92.5242 50.1844 92.5261C50.2676 92.5304 50.3283 92.5219 50.3665 92.5007C50.4047 92.4795 50.439 92.4442 50.4693 92.3947L50.6358 92.4033L50.5847 94.3407L50.3697 94.3296C50.3004 93.8764 50.1935 93.5209 50.0491 93.2632C49.7863 92.7861 49.3844 92.5336 48.8434 92.5058C48.5198 92.4891 48.2604 92.5754 48.0652 92.7647C47.87 92.954 47.7656 93.1827 47.7518 93.4509C47.7299 93.8762 48.0294 94.2718 48.6503 94.6375L49.5404 95.177C50.4976 95.764 50.9579 96.4135 50.9212 97.1255C50.8931 97.6711 50.6644 98.1067 50.2351 98.4323C49.8104 98.7581 49.2675 98.904 48.6063 98.87C48.3289 98.8557 48.0169 98.7933 47.6703 98.6827C47.3237 98.5722 47.118 98.5152 47.0532 98.5119C46.9978 98.509 46.9481 98.5273 46.9044 98.5668C46.8609 98.6017 46.8261 98.6462 46.8002 98.7005L46.6199 98.6912L46.7351 96.4512Z" fill="#333333"/>
<path d="M55.0789 89.6715C55.0546 89.4739 55.1027 89.2954 55.2231 89.1361C55.3434 88.9767 55.5047 88.8846 55.7069 88.8598C55.9045 88.8356 56.0809 88.8862 56.2363 89.0117C56.3956 89.1321 56.4877 89.2934 56.5125 89.4956C56.5368 89.6932 56.4864 89.8719 56.3615 90.0318C56.2405 90.1866 56.0813 90.2761 55.8837 90.3004C55.6815 90.3252 55.503 90.2771 55.3482 90.1562C55.1929 90.0306 55.1031 89.8691 55.0789 89.6715ZM55.2649 98.4852C55.751 98.3789 56.051 98.2581 56.165 98.1229C56.2784 97.983 56.3022 97.6443 56.2362 97.1066L55.8327 93.8188C55.796 93.5202 55.75 93.3159 55.6945 93.2061C55.6025 93.0262 55.4462 92.9497 55.2256 92.9768C55.1751 92.983 55.1251 92.9938 55.0757 93.0092C55.0309 93.024 54.8975 93.0777 54.6757 93.1702L54.6494 92.9566L54.934 92.8237C55.706 92.4631 56.2423 92.1967 56.543 92.0245C56.6649 91.9536 56.7443 91.9159 56.781 91.9114C56.7942 91.9424 56.803 91.9763 56.8075 92.0131L57.4148 96.962C57.4791 97.4858 57.5815 97.8068 57.7219 97.9248C57.8669 98.0423 58.1645 98.092 58.6148 98.0741L58.6384 98.2671L55.2886 98.6782L55.2649 98.4852Z" fill="#333333"/>
<path d="M63.9822 90.4297L64.1186 90.9107L62.7557 91.2973L63.8337 95.1492C63.9297 95.4877 64.0313 95.7356 64.1385 95.8929C64.3325 96.1699 64.5854 96.2642 64.8972 96.1758C65.0576 96.1303 65.1849 96.0533 65.2792 95.9447C65.378 95.8349 65.4797 95.6761 65.5844 95.4684L65.7998 95.5661L65.7097 95.8082C65.5665 96.1857 65.3841 96.4756 65.1624 96.678C64.9407 96.8805 64.7096 97.0158 64.4691 97.084C63.9435 97.233 63.5209 97.1003 63.2012 96.6857C63.0267 96.4608 62.8757 96.1235 62.7481 95.6737L61.5999 91.6251L60.8717 91.8316C60.8457 91.8245 60.824 91.8162 60.8069 91.8067C60.7942 91.7958 60.7847 91.7793 60.7784 91.757C60.7657 91.7125 60.7652 91.6765 60.7767 91.6492C60.7914 91.6162 60.8395 91.5399 60.9212 91.4206C61.1565 91.0795 61.3188 90.8121 61.4083 90.6183C61.5009 90.4188 61.7028 89.9092 62.0141 89.0895C62.072 89.0731 62.1067 89.068 62.1181 89.0744C62.134 89.0795 62.1501 89.1111 62.1666 89.169L62.6327 90.8125L63.9822 90.4297Z" fill="#333333"/>
<path d="M76.521 86.9399C76.1799 87.3849 75.9257 87.7932 75.7585 88.1646C75.4393 88.8803 75.4269 89.4544 75.7213 89.8869C75.9584 90.2351 76.2477 90.4134 76.5894 90.4216C76.8116 90.4272 77.0145 90.3674 77.1982 90.2424C77.4508 90.0705 77.6437 89.8355 77.7769 89.5376C77.914 89.2371 77.9082 88.9778 77.7598 88.7596L76.521 86.9399ZM74.9691 90.9786C74.5914 90.4237 74.5536 89.7717 74.8558 89.0227C75.0516 88.5534 75.5415 87.7635 76.3256 86.6529L75.9934 86.1649C75.7277 85.7746 75.5045 85.5289 75.3237 85.4279C75.019 85.2601 74.662 85.3156 74.2525 85.5943C74.0573 85.7272 73.9056 85.9033 73.7973 86.1226C73.6916 86.3458 73.6999 86.5473 73.8224 86.7272C73.8536 86.7731 73.9166 86.8451 74.0113 86.943C74.1034 87.0371 74.1598 87.0995 74.1807 87.1301C74.3266 87.3444 74.3574 87.5419 74.2731 87.7225C74.2266 87.8269 74.1478 87.9169 74.0369 87.9925C73.8646 88.1097 73.6948 88.1441 73.5274 88.0957C73.3574 88.0434 73.2255 87.9484 73.1318 87.8106C72.9494 87.5427 72.9238 87.1513 73.0549 86.6364C73.1872 86.1151 73.573 85.6369 74.2121 85.2018C74.9545 84.6964 75.6219 84.5949 76.2142 84.8973C76.5356 85.065 76.8682 85.4014 77.2121 85.9066L78.7791 88.2085C78.9302 88.4305 79.0497 88.5732 79.1377 88.6365C79.289 88.7519 79.4431 88.7562 79.6 88.6494C79.6881 88.5894 79.7517 88.5265 79.7908 88.4607C79.83 88.3948 79.8852 88.262 79.9565 88.0623L80.1597 88.3608C80.1388 88.5934 80.0901 88.8058 80.0137 88.9978C79.8984 89.2891 79.7297 89.5104 79.5078 89.6615C79.2475 89.8386 79.0008 89.8834 78.7675 89.7958C78.5381 89.7055 78.3382 89.5476 78.1678 89.322C78.0488 89.7725 77.9277 90.1294 77.8045 90.3925C77.5969 90.8363 77.3362 91.165 77.0224 91.3786C76.6933 91.6026 76.33 91.6819 75.9326 91.6164C75.5326 91.5471 75.2114 91.3345 74.9691 90.9786Z" fill="#333333"/>
<path d="M83.4317 86.4513C83.6442 86.1576 83.7569 85.9365 83.7695 85.7879C83.7898 85.5601 83.648 85.314 83.3441 85.0496L80.6356 82.693C80.3772 82.4681 80.1774 82.3556 80.0363 82.3556C79.8982 82.3521 79.7608 82.4289 79.6241 82.586C79.5602 82.6594 79.5151 82.7183 79.4887 82.7628C79.4653 82.8038 79.441 82.8563 79.4159 82.9204L79.2326 82.7609L79.435 82.2743C79.5082 82.0986 79.6206 81.8036 79.7723 81.3895C79.924 80.9753 80.0074 80.7595 80.0226 80.742C80.0378 80.7246 80.0557 80.7217 80.0762 80.7334C80.0967 80.7451 80.1314 80.7722 80.1803 80.8148L80.8875 81.4301C80.874 80.8109 80.9173 80.3238 81.0174 79.9691C81.1139 79.6112 81.2777 79.2996 81.5086 79.0342C81.8216 78.6744 82.1931 78.4944 82.6229 78.4941C82.8529 78.4978 83.1133 78.5617 83.4041 78.6859C83.367 78.1995 83.3692 77.8056 83.4106 77.5041C83.4828 76.9839 83.6693 76.5509 83.9701 76.2052C84.4594 75.6429 85.0148 75.4664 85.6364 75.6759C85.9891 75.7925 86.4448 76.0939 87.0037 76.5802L89.1778 78.4719C89.4258 78.6876 89.6423 78.7809 89.8273 78.7516C90.0118 78.7158 90.2427 78.5669 90.5198 78.3048L90.656 78.4233L88.6002 80.7861L88.4535 80.6584C88.69 80.3303 88.8021 80.078 88.7898 79.9016C88.7806 79.7218 88.6311 79.5058 88.3412 79.2535L86.0832 77.2889C85.7444 76.9942 85.4628 76.8135 85.2383 76.7471C84.8395 76.6271 84.476 76.7558 84.1478 77.133C83.9503 77.36 83.8293 77.6506 83.785 78.0048C83.7599 78.21 83.7613 78.4905 83.7893 78.8462L86.4717 81.18C86.7546 81.4262 87.0119 81.5642 87.2437 81.594C87.4785 81.6204 87.7409 81.4774 88.031 81.1652L88.1672 81.2837L86.0749 83.6884L85.9387 83.5699C86.1855 83.2016 86.289 82.9204 86.2493 82.7263C86.2095 82.5322 85.9574 82.233 85.4929 81.8289L84.026 80.5525C83.4882 80.0845 83.0875 79.7974 82.8242 79.691C82.3816 79.5084 81.9978 79.604 81.6726 79.9777C81.4873 80.1907 81.3643 80.4519 81.3038 80.7613C81.2397 81.0677 81.2336 81.3815 81.2855 81.7027L84.1512 84.1961C84.4166 84.4271 84.6395 84.5412 84.8198 84.5385C85.0031 84.5324 85.2317 84.3754 85.5057 84.0676L85.6419 84.1861L83.5679 86.5698L83.4317 86.4513Z" fill="#333333"/>
<path d="M88.0203 69.4793C88.3095 68.894 88.7661 68.482 89.3903 68.243C90.0103 68.002 90.6918 68.0651 91.4347 68.4322L89.4811 72.3855C90.4645 72.8198 91.2736 72.9486 91.9084 72.7717C92.5432 72.5948 92.9939 72.2366 93.2606 71.697C93.4759 71.2612 93.5433 70.8375 93.4627 70.4259C93.3821 70.0142 93.1947 69.5782 92.9007 69.1179L93.083 68.9369C93.5261 69.3676 93.8558 69.9282 94.0723 70.6187C94.2908 71.305 94.2329 71.9865 93.8986 72.663C93.513 73.4433 92.9199 73.9016 92.1193 74.0378C91.3207 74.1699 90.5375 74.0462 89.7697 73.6668C88.9355 73.2545 88.3374 72.6517 87.9755 71.8584C87.6136 71.065 87.6285 70.272 88.0203 69.4793ZM88.2963 70.0649C88.0625 70.5381 88.0937 71.0027 88.3898 71.4589C88.5483 71.7025 88.7833 71.9374 89.095 72.1637L90.3933 69.5365C89.9556 69.377 89.6075 69.3031 89.3487 69.3147C88.883 69.3375 88.5322 69.5876 88.2963 70.0649Z" fill="#333333"/>
<path d="M91.209 61.1557L91.6896 61.2934L91.2995 62.6553L95.1409 63.7703C95.4791 63.8672 95.7433 63.9116 95.9335 63.9035C96.2712 63.8846 96.4846 63.7194 96.5739 63.4079C96.6198 63.2477 96.6215 63.0989 96.579 62.9615C96.5377 62.8196 96.4565 62.6495 96.3351 62.451L96.5317 62.3195L96.6899 62.5237C96.9352 62.8444 97.0853 63.1523 97.1405 63.4474C97.1956 63.7425 97.1887 64.0102 97.1198 64.2506C96.9694 64.7757 96.6337 65.0648 96.1129 65.1179C95.8299 65.1476 95.4636 65.098 95.0141 64.9692L90.9686 63.8102L90.7601 64.5379C90.7404 64.5563 90.7219 64.5703 90.7048 64.5798C90.6889 64.5849 90.6698 64.5842 90.6475 64.5778C90.603 64.5651 90.5722 64.5466 90.555 64.5225C90.5347 64.4925 90.4953 64.4114 90.4369 64.2791C90.2712 63.8994 90.1296 63.6204 90.0121 63.4423C89.8914 63.2584 89.5649 62.8181 89.0325 62.1214C89.0491 62.0635 89.0631 62.0314 89.0745 62.0251C89.0872 62.0143 89.1225 62.0172 89.1804 62.0337L90.8226 62.5042L91.209 61.1557Z" fill="#333333"/>
<path d="M98.4464 55.8249C98.9099 55.8861 99.3192 56.1106 99.6743 56.4983C100.029 56.8861 100.269 57.2842 100.392 57.6928L100.1 57.7872C99.9099 57.3139 99.6814 56.9756 99.4141 56.7722C99.1473 56.5642 98.9176 56.4475 98.7248 56.422C98.6605 56.4136 98.6165 56.4288 98.5927 56.4676C98.5689 56.5065 98.5539 56.5489 98.5479 56.5948L98.5352 57.0625C98.5098 57.2552 98.4245 57.4238 98.2794 57.568C98.1296 57.7117 97.9355 57.7678 97.6968 57.7363C97.5132 57.7121 97.343 57.6219 97.1861 57.4658C97.0293 57.3097 96.9709 57.0802 97.0108 56.7772C97.049 56.4881 97.198 56.2439 97.4577 56.0447C97.7129 55.8449 98.0425 55.7716 98.4464 55.8249Z" fill="#333333"/>
<path d="M91.4878 43.5753C91.3821 43.0064 91.4391 42.4896 91.6588 42.025C91.8732 41.5566 92.1556 41.2899 92.5061 41.2248C92.6563 41.1969 92.8071 41.223 92.9585 41.3032C93.1054 41.3842 93.1992 41.5339 93.2398 41.7524C93.2694 41.9117 93.241 42.063 93.1546 42.2062C93.0673 42.3448 92.9241 42.4609 92.7248 42.5544L92.4124 42.6972C92.1821 42.8012 92.0304 42.9353 91.9574 43.0996C91.8897 43.2676 91.8787 43.4745 91.9244 43.7202C92.0208 44.2391 92.33 44.6361 92.8519 44.9111C93.3685 45.1824 94.0023 45.2483 94.7533 45.1088C95.4406 44.9811 96.021 44.6707 96.4945 44.1778C96.9671 43.6803 97.1413 43.097 97.017 42.428C96.929 41.9546 96.696 41.5623 96.318 41.2511C96.1016 41.0747 95.7754 40.8905 95.3395 40.6984L95.42 40.4856C96.0144 40.6436 96.4976 40.8363 96.8695 41.0639C97.5817 41.5013 98.0051 42.0819 98.1396 42.8056C98.2715 43.5157 98.1083 44.1958 97.6499 44.846C97.1915 45.4963 96.4821 45.9106 95.5217 46.089C94.5795 46.2641 93.7139 46.1165 92.9249 45.6462C92.136 45.176 91.6569 44.4857 91.4878 43.5753Z" fill="#333333"/>
<path d="M93.3627 37.2061C92.5126 37.5613 91.6826 37.5921 90.8724 37.2984C90.0563 37.0022 89.4706 36.429 89.1154 35.579C88.762 34.7332 88.747 33.9166 89.0702 33.1293C89.3935 32.3419 90.0165 31.7555 90.9392 31.3699C91.7893 31.0148 92.6407 30.9751 93.4935 31.2509C94.3464 31.5268 94.9513 32.0919 95.3082 32.9462C95.6509 33.7664 95.6398 34.5864 95.2749 35.4062C94.91 36.226 94.2726 36.826 93.3627 37.2061ZM89.5748 35.5977C89.7158 35.9352 89.9492 36.1814 90.2748 36.3363C90.842 36.6011 91.6019 36.5345 92.5545 36.1364C93.3148 35.8187 93.9526 35.3516 94.4676 34.735C94.9809 34.1141 95.1099 33.4982 94.8547 32.8874C94.6547 32.409 94.2813 32.1335 93.7342 32.0611C93.1853 31.9843 92.5542 32.095 91.8408 32.3931C91.1018 32.7018 90.4743 33.1572 89.9581 33.7592C89.442 34.3612 89.3142 34.9741 89.5748 35.5977Z" fill="#333333"/>
<path d="M91.8359 26.7605C91.6124 26.5159 91.4141 26.3753 91.241 26.3388C91.0615 26.3011 90.7977 26.405 90.4496 26.6505L87.5725 28.6799C87.3304 28.8506 87.1762 28.9934 87.1098 29.1082C87.0168 29.2815 87.0489 29.4797 87.2064 29.7029C87.2304 29.737 87.2576 29.7716 87.2881 29.8067C87.3159 29.8381 87.3523 29.8776 87.3972 29.9252L87.1986 30.0653C87.0438 29.9422 86.6677 29.658 86.0702 29.2126L85.5181 28.8032C85.4994 28.7768 85.4982 28.755 85.5144 28.7378C85.528 28.7169 85.5518 28.6945 85.5859 28.6704L86.4201 28.0821C85.8492 27.9635 85.4339 27.8485 85.1741 27.7372C84.7805 27.5729 84.4717 27.3318 84.2476 27.014C84.0661 26.7568 83.9745 26.4702 83.9726 26.1542C83.9719 25.5428 84.3404 24.977 85.0782 24.4567L87.7283 22.5874C88.0007 22.3953 88.1587 22.2017 88.2024 22.0066C88.2461 21.8115 88.1791 21.584 88.0014 21.3241L88.1603 21.212L89.8694 23.6351L89.7105 23.7472C89.4779 23.4977 89.2661 23.3581 89.0753 23.3285C88.8806 23.3015 88.5903 23.4241 88.2044 23.6962L85.7813 25.4054C85.4559 25.6348 85.23 25.8848 85.1036 26.1553C84.9733 26.4285 85.0229 26.7277 85.2524 27.0531C85.4098 27.2763 85.6456 27.4499 85.9597 27.574C86.1374 27.6412 86.3986 27.7063 86.7432 27.7691L89.9211 25.5277C90.1935 25.3356 90.3343 25.1456 90.3435 24.9578C90.3489 24.7727 90.2633 24.547 90.0868 24.2806L90.2456 24.1686L91.9948 26.6484L91.8359 26.7605Z" fill="#333333"/>
<path d="M83.8219 19.7235L83.6544 19.5672C83.9366 19.1087 84.1081 18.7146 84.1687 18.3849C84.2855 17.7848 84.1155 17.2715 83.6586 16.8451C83.4047 16.6082 83.1402 16.4912 82.8652 16.4941C82.5836 16.4973 82.3386 16.6106 82.1301 16.834C81.9975 16.9762 81.9119 17.1527 81.8733 17.3637C81.8347 17.5747 81.8636 17.8423 81.96 18.1665L82.2254 19.0221C82.4333 19.634 82.5295 20.1449 82.5142 20.5549C82.4989 20.9648 82.3475 21.3238 82.0601 21.6318C81.7064 22.0109 81.2804 22.196 80.7822 22.187C80.284 22.178 79.8301 21.9824 79.4206 21.6002C79.2412 21.4328 79.0764 21.2158 78.9264 20.9491C78.7729 20.6793 78.6827 20.5317 78.6556 20.5064C78.5947 20.4496 78.5428 20.417 78.4999 20.4086C78.457 20.4003 78.4081 20.4053 78.353 20.4236L78.2312 20.3098L79.5175 18.8602L79.6749 19.007C79.4362 19.3985 79.2891 19.7394 79.2336 20.0295C79.1276 20.5638 79.2726 21.0158 79.6686 21.3853C79.9056 21.6064 80.1596 21.7074 80.4308 21.6882C80.702 21.669 80.9293 21.5612 81.1124 21.3649C81.403 21.0535 81.4285 20.558 81.1888 19.8784L80.855 18.8926C80.5005 17.8271 80.5664 17.0338 81.0528 16.5126C81.4255 16.1132 81.881 15.9271 82.4191 15.9544C82.9538 15.9785 83.4632 16.2163 83.9472 16.668C84.1503 16.8575 84.3489 17.1062 84.543 17.4139C84.737 17.7217 84.8578 17.8976 84.9051 17.9419C84.9458 17.9798 84.9955 17.9977 85.0544 17.9957C85.1101 17.997 85.1654 17.9853 85.2202 17.9604L85.3522 18.0836L83.8219 19.7235Z" fill="#333333"/>
<path d="M27.6019 10.3635C27.2641 10.6256 27.067 10.8409 27.0105 11.0096C26.9566 11.1822 27.03 11.424 27.2308 11.7352L28.929 14.3668C29.1775 14.7519 29.3914 15.0023 29.5708 15.118C29.7487 15.2401 29.933 15.2396 30.1236 15.1166C30.1625 15.0915 30.2112 15.0518 30.2698 14.9975C30.3271 14.9495 30.3857 14.8952 30.4456 14.8344L30.5699 15.027C30.3984 15.2479 30.2223 15.4744 30.0416 15.7067C29.8609 15.939 29.7371 16.1016 29.6702 16.1943C29.5234 16.3937 29.3771 16.6066 29.2311 16.833C29.2039 16.8506 29.1821 16.8509 29.1656 16.834C29.1453 16.8196 29.1151 16.7812 29.0749 16.719L28.4574 15.7621C28.4318 16.2689 28.3671 16.6936 28.2631 17.0362C28.1552 17.3813 27.9768 17.6342 27.7278 17.7949C27.5294 17.9229 27.3291 17.9668 27.1268 17.9265C26.927 17.8901 26.7694 17.7825 26.6539 17.6035C26.551 17.4441 26.513 17.2785 26.54 17.1068C26.563 16.9376 26.6465 16.8066 26.7905 16.7137C26.9383 16.6184 27.132 16.5898 27.3715 16.628C27.6072 16.6688 27.7678 16.6616 27.8534 16.6063C27.9896 16.5185 28.0853 16.2997 28.1406 15.9499C28.1984 15.6041 28.152 15.3145 28.0014 15.0811L26.3033 12.4495C26.0874 12.1149 25.859 11.9318 25.6181 11.8999C25.3796 11.8719 25.082 11.9786 24.7253 12.2198L24.601 12.0272L27.4777 10.171L27.6019 10.3635Z" fill="#333333"/>
<path d="M52.3046 38.6742C45.7861 38.6742 40.4529 44.0075 40.4529 50.5259C40.4529 57.0443 45.7861 62.3776 52.3046 62.3776C58.823 62.3776 64.1563 57.0443 64.1563 50.5259C64.1563 44.0075 58.823 38.6742 52.3046 38.6742ZM57.2823 55.5036L51.1194 51.7111V44.6H52.8972V50.7629L58.2304 53.9629L57.2823 55.5036Z" fill="black"/>
</svg>
